# xmcd
#
# Track frame offsets:
#	150
#	9807
#	24810
#	35770
#
# Disc length: 653 seconds
#
# Revision: 1
# Processed by: cddbd v1.5.2PL0 Copyright (c) Steve Scherf et al.
# Submitted via: audiograbber 1.83.01
#
DISCID=1d028b04
DTITLE=Claude Nougaro - Le cinéma
DYEAR=1962
DGENRE=Variété Françoise
TTITLE0=Le cinéma
TTITLE1=Les don juan
TTITLE2=Une petite fille
TTITLE3=Le jazz et la java
EXTD=
EXTT0=
EXTT1=
EXTT2=
EXTT3=
PLAYORDER=
